<svg xmlns="http://www.w3.org/2000/svg" viewBox="0 0 60 60"><defs><style>.cls-1{fill:#a8d36f;}.cls-2{fill:#30343a;stroke:#30343a;stroke-miterlimit:10;stroke-width:0.25px;}</style></defs><g id="gr_01"><path class="cls-1" d="M55.74,30.82c-.49,6.12-9,16-14.49,18.72S15.7,53.44,10.61,50s-7.12-13.9-4-19.18c10.83-18.23,8.29-19,12.28-21.27,7.78-4.5,15.56,1.18,20.87,4.25S56.22,24.7,55.74,30.82Z"/><path class="cls-2" d="M40.13,42.65h0c0-.28-.43-.76-.59-1.2-.81-1.78-4.49-4.5-8.1-5.35a14.58,14.58,0,0,0-6.34-.05,8.93,8.93,0,0,0-1.39.37,7.29,7.29,0,0,0-1.34.52,22.58,22.58,0,0,0-2.92,1.64c0,.23,3.58,3.48,4.23,4a14,14,0,0,0,11.8,3.12,9.49,9.49,0,0,0,3.75-2C39.41,43.64,40.2,42.89,40.13,42.65Zm-6.71,2A16.7,16.7,0,0,1,26,42.76a36.85,36.85,0,0,1-4.24-3.93c-.06-.08,0-.13.17-.26a8.93,8.93,0,0,1,2.63-1.14,13.87,13.87,0,0,1,4.62-.67,18.57,18.57,0,0,1,4.41,1,10.43,10.43,0,0,1,4.21,2.75,2.35,2.35,0,0,1,0,2C37.27,43.62,34.45,44.68,33.42,44.69Z"/><path class="cls-2" d="M28.53,38.82c.06-.11.26-.36.47-.34a9.3,9.3,0,0,1,5.09,1.4.44.44,0,0,1,.13.59.37.37,0,0,1-.43.25c-.46,0-2.69-1.37-4.89-1.29A.42.42,0,0,1,28.53,38.82Z"/><rect class="cls-1" x="31.22" y="35.3" width="2.29" height="2.88" transform="translate(13.19 -8.31) rotate(18.32)"/><path class="cls-2" d="M27,17.53a2.47,2.47,0,0,1,2,.63,3.55,3.55,0,0,1,.9,2.08,2.88,2.88,0,0,1-.81,2.26,4,4,0,0,1-2.14,1.1A5.06,5.06,0,0,1,23,22.74,4.15,4.15,0,0,1,21.61,19a5.77,5.77,0,0,1,1.94-3.58A5.26,5.26,0,0,1,27.4,14a7,7,0,0,1,4.42,2.6A10.75,10.75,0,0,1,34,21.38a24.7,24.7,0,0,1,.09,8c-.41,3.11-1.23,6.06-1.62,9.08-.15,1.33-.76.55-.76.55a5,5,0,0,1,0-1.45c.23-1.45.51-2.91.85-4.34a41.33,41.33,0,0,0,1.08-5.69c0-.4.07-.81.09-1.22a14.74,14.74,0,0,0-1.06-7,8,8,0,0,0-2.53-3.34,7.92,7.92,0,0,0-2.05-1,4.22,4.22,0,0,0-2,0,5.32,5.32,0,0,0-3.41,3,3.69,3.69,0,0,0-.28,2.12,3.53,3.53,0,0,0,1,2,4.37,4.37,0,0,0,3,.94A3.3,3.3,0,0,0,29,21.2a2.22,2.22,0,0,0-.82-2.83,1.75,1.75,0,0,0-2.71.71,3.06,3.06,0,0,0,0,1.3c0,.16,0,.24-.18.2s-.17-.28-.3-.67C24.6,18.77,25.28,17.56,27,17.53Z"/></g></svg>