<svg xmlns="http://www.w3.org/2000/svg" viewBox="0 0 60 60"><defs><style>.cls-1{fill:#a8d36f;}.cls-2{fill:#30343a;stroke:#30343a;stroke-miterlimit:10;stroke-width:0.25px;}</style></defs><g id="gr_02"><path class="cls-1" d="M55.74,30.82c-.49,6.12-9,16-14.49,18.72S15.7,53.44,10.61,50s-7.12-13.9-4-19.18c10.83-18.23,8.29-19,12.28-21.27,7.78-4.5,15.56,1.18,20.87,4.25S56.22,24.7,55.74,30.82Z"/><path class="cls-2" d="M30.41,46h0c.32-.08.78-.5,1.25-.71,1.87-1,4.08-4.62,4.14-7.88a10.21,10.21,0,0,0-1.58-5.48,8.32,8.32,0,0,0-.79-1.14,6.83,6.83,0,0,0-1-1.07c-.17-.18-.8-.75-1.41-1.27s-1-.66-1.27-.61-.5.12-1,.74c-1,1.14-2.27,2.79-2.58,3.22a9.47,9.47,0,0,0-.58,10.7,9.85,9.85,0,0,0,3.26,2.91C29.07,45.53,30.16,46.09,30.41,46Zm-4.12-5.45a10.87,10.87,0,0,1,.34-6.73,31.47,31.47,0,0,1,3.48-4.32c.08-.06.15,0,.35.11a8.59,8.59,0,0,1,2,2.08,10.6,10.6,0,0,1,2,3.88,12,12,0,0,1,0,4,7.72,7.72,0,0,1-2.12,4.09A3.59,3.59,0,0,1,30,44C28.55,43.68,26.57,41.43,26.29,40.54Z"/><path class="cls-2" d="M30.25,29.15a.67.67,0,0,1,.52.29A14,14,0,0,1,31.58,36a.36.36,0,0,1-.41.37c-.18,0-.23-.19-.32-.46-.15-.45,0-4.12-1-6.15A.43.43,0,0,1,30.25,29.15Z"/><path class="cls-2" d="M28.43,17a2.08,2.08,0,0,1,1.31,1.13,2.85,2.85,0,0,1,0,1.87,2.4,2.4,0,0,1-1.34,1.47,3.39,3.39,0,0,1-2,.16,4.22,4.22,0,0,1-2.68-1.9,3.47,3.47,0,0,1,.1-3.31,4.79,4.79,0,0,1,2.62-2.11,4.3,4.3,0,0,1,3.39.14,5.79,5.79,0,0,1,2.56,3.4,9.07,9.07,0,0,1,.13,4.33,20,20,0,0,1-2.48,6.15c-.35.61-.73,1.2-1.11,1.78-1,1.56-2.1,3-3,4.64-.54,1-.76.18-.76.18a4.2,4.2,0,0,1,.47-1.11c.64-1,1.31-2.06,2-3a32.62,32.62,0,0,0,2.64-4c.17-.29.32-.6.46-.9a12.24,12.24,0,0,0,1.43-5.72,6.59,6.59,0,0,0-.87-3.35,6.1,6.1,0,0,0-1.24-1.44,3.22,3.22,0,0,0-1.53-.68A4.39,4.39,0,0,0,25,15.82a3.09,3.09,0,0,0-.89,1.53,3,3,0,0,0,.14,1.84,3.64,3.64,0,0,0,2,1.68,2.76,2.76,0,0,0,2.51-.45A1.84,1.84,0,0,0,29.06,18a1.46,1.46,0,0,0-2.3-.32,2.46,2.46,0,0,0-.38,1c-.05.12-.11.17-.2.09s0-.26,0-.61C26.22,17.17,27.13,16.46,28.43,17Z"/></g></svg>