<svg xmlns="http://www.w3.org/2000/svg" viewBox="0 0 60 60"><defs><style>.cls-1{fill:#a8d36f;}.cls-2{fill:#30343a;stroke:#30343a;stroke-miterlimit:10;stroke-width:0.25px;}</style></defs><g id="gr_04"><path class="cls-1" d="M55.74,30.82c-.49,6.12-9,16-14.49,18.72S15.7,53.44,10.61,50s-7.12-13.9-4-19.18c10.83-18.23,8.29-19,12.28-21.27,7.78-4.5,15.56,1.18,20.87,4.25S56.22,24.7,55.74,30.82Z"/><path class="cls-2" d="M40,40.21h0c-.1-.28-.56-.68-.8-1.09-1.11-1.64-5.08-3.56-8.6-3.6a12.67,12.67,0,0,0-5.87,1.39A20.16,20.16,0,0,0,22,38.31c-.37.3-2.09,1.43-2,2.48s4,3.11,4.87,3.52c4.11,2,10.32,1.11,11.44.12a26.77,26.77,0,0,0,3.07-2.86C39.53,41.38,40.1,40.43,40,40.21ZM34.25,44a15.83,15.83,0,0,1-7.77-.29c-1.5-.6-5.18-2.79-5.27-3.23a.72.72,0,0,1,.32-.72,11.88,11.88,0,0,1,2.16-1.61,13.63,13.63,0,0,1,4.61-1.62,17.05,17.05,0,0,1,4.57-.05,10.24,10.24,0,0,1,4.78,1.93,2.75,2.75,0,0,1,.49,2.18C37.83,42,35.27,43.77,34.25,44Z"/><path class="cls-2" d="M29,40.27c5.16.81,8.15-.16,9.12-.79.41-.26.58.17.62.34s0,.36-.51.56a16.57,16.57,0,0,1-9.53.34.9.9,0,0,1-.64-.43C28,40,28.43,40.18,29,40.27Z"/><path class="cls-2" d="M23.09,40.65c-.34-.21-.46-.59-.31-.53l.34.18a4.15,4.15,0,0,0,1.68.77c.28,0,.59.15.63.28a.25.25,0,0,1-.23.31A5.48,5.48,0,0,1,23.09,40.65Z"/><path class="cls-2" d="M28.82,17.62a2.23,2.23,0,0,1,1.69.78,3.08,3.08,0,0,1,.57,1.93,2.54,2.54,0,0,1-.95,1.91,3.55,3.55,0,0,1-2,.75,4.57,4.57,0,0,1-3.33-1.17,3.73,3.73,0,0,1-.88-3.46,5.21,5.21,0,0,1,2.1-3,4.64,4.64,0,0,1,3.55-.84,6.21,6.21,0,0,1,3.64,2.76,9.76,9.76,0,0,1,1.42,4.45,21.62,21.62,0,0,1-.77,7.09c-.69,2.71,5.64,3.78,6.14,7.57a5.41,5.41,0,0,1-1.91,3.86c-.17.12-.46-.15-.38-.24,1.95-2.3,2-3,1.72-4.49-.21-1-6-4-6.07-5.57a5.38,5.38,0,0,1,.3-2.81c.08-.36.16-.72.22-1.07a13.19,13.19,0,0,0-.2-6.34,7.2,7.2,0,0,0-1.89-3.22,6.9,6.9,0,0,0-1.7-1.13,3.54,3.54,0,0,0-1.79-.25A4.7,4.7,0,0,0,25,17.42a3.3,3.3,0,0,0-.47,1.85,3.21,3.21,0,0,0,.68,1.87,3.9,3.9,0,0,0,2.56,1.15,3,3,0,0,0,2.47-1.21,2,2,0,0,0-.43-2.59,1.56,1.56,0,0,0-2.47.34A2.52,2.52,0,0,0,27.2,20c0,.14-.07.21-.19.15s-.11-.26-.19-.62C26.59,18.48,27.32,17.47,28.82,17.62Z"/></g></svg>