<svg xmlns="http://www.w3.org/2000/svg" viewBox="0 0 60 60"><defs><style>.cls-1{fill:#a8d36f;}.cls-2{fill:#30343a;stroke:#30343a;stroke-miterlimit:10;stroke-width:0.25px;}</style></defs><g id="gr_03"><path class="cls-1" d="M55.74,30.82c-.49,6.12-9,16-14.49,18.72S15.7,53.44,10.61,50s-7.12-13.9-4-19.18c10.83-18.23,8.29-19,12.28-21.27,7.78-4.5,15.56,1.18,20.87,4.25S56.22,24.7,55.74,30.82Z"/><path class="cls-2" d="M30.21,45.39h0c.29-.08.72-.46,1.16-.66,1.73-.91,3.77-4.27,3.81-7.3a9.51,9.51,0,0,0-1.5-5.1A8.1,8.1,0,0,0,33,31.27a7,7,0,0,0-.9-1c-.16-.16-.43-.29-1-.78a2,2,0,0,0-1.47-.63,2.3,2.3,0,0,0-1.28.88c-.41.49-.84,1-1.2,1.38s-.74.84-.9,1.05A8.5,8.5,0,0,0,25.94,42a9.28,9.28,0,0,0,2.83,2.79C29,45,30,45.49,30.21,45.39Zm-4.46-4.75c-.59-1.87-.55-5.22.16-6.61.26-.51,1.11-1.46,1.61-2.19a7.54,7.54,0,0,1,1.69-1.69A1.31,1.31,0,0,1,30.47,30a10.42,10.42,0,0,1,2.32,1.79,8.34,8.34,0,0,1,1.55,3.39,15.47,15.47,0,0,1-.15,4.4C33.93,41,32.31,44,30.25,44.45,28.9,44.72,26,41.47,25.75,40.64Z"/><path class="cls-2" d="M30.1,45.62h0c.31-.08.75-.49,1.21-.69,1.81-1,3.95-4.48,4-7.63a9.86,9.86,0,0,0-1.41-5.35,6.1,6.1,0,0,0-.69-1c-.25-.38-.14-.34-.49-.67-.17-.17-.72.64-1.06,1.07-.48.62-1.51,4.91-1.57,4.57C30,35.17,27.69,30,27,30.69c-1,1-.7.75-1,1.16a9.15,9.15,0,0,0-.56,10.37A9.58,9.58,0,0,0,28.6,45C28.8,45.18,29.85,45.72,30.1,45.62Zm-4.22-5.17a10.74,10.74,0,0,1,.22-6.56,6.68,6.68,0,0,1,1.33-1.65c.35-.35,2.19,3.6,2.2,4.39,0,.35.58.35.68,0,.42-1.6,1.91-5.25,2.27-4.9,1.13,1.13,1.19,2.47,1.43,3.78a11.78,11.78,0,0,1,0,3.84,9.36,9.36,0,0,1-2,4,2.56,2.56,0,0,1-2.5.75C28.09,43.78,26.15,41.31,25.88,40.45Z"/><path class="cls-2" d="M33,39.54c.08,0,.17.22.12.41a4.57,4.57,0,0,1-1.81,2.63c-.22.17-.33.22-.43.16s.12-.25.23-.34a4.38,4.38,0,0,0,1.47-2.13C32.65,39.9,32.84,39.54,33,39.54Z"/><path class="cls-2" d="M29.71,17.51A2,2,0,0,1,31,18.6a2.87,2.87,0,0,1,0,1.81,2.32,2.32,0,0,1-1.29,1.42,3.2,3.2,0,0,1-1.93.16,4.07,4.07,0,0,1-2.6-1.84,3.35,3.35,0,0,1,.09-3.21,4.64,4.64,0,0,1,2.55-2,4.17,4.17,0,0,1,3.28.14,5.56,5.56,0,0,1,2.47,3.29,8.67,8.67,0,0,1,.14,4.2,20,20,0,0,1-2.41,5.95l-.48.81c-.2.31-1.08.53-.72,0A19.7,19.7,0,0,0,31.55,27c.17-.28.31-.58.45-.87a11.75,11.75,0,0,0,1.38-5.54,6.33,6.33,0,0,0-.84-3.25,6.14,6.14,0,0,0-1.2-1.4,3.23,3.23,0,0,0-1.49-.65,4.22,4.22,0,0,0-3.43,1.13,3,3,0,0,0-.86,1.49,2.85,2.85,0,0,0,.13,1.78,3.48,3.48,0,0,0,1.93,1.62,2.66,2.66,0,0,0,2.44-.43,1.78,1.78,0,0,0,.26-2.35,1.4,1.4,0,0,0-2.22-.32,2.35,2.35,0,0,0-.37,1c-.05.11-.11.16-.2.08s0-.25,0-.59C27.57,17.7,28.45,17,29.71,17.51Z"/></g></svg>